<svg xmlns="http://www.w3.org/2000/svg" viewBox="0 0 1080 1080" width="1080" height="1080" xmlns:c2pa="http://c2pa.org/manifest"><metadata><c2pa:manifest>AAAWgmp1bWIAAAAeanVtZGMycGEAEQAQgAAAqgA4m3EDYzJwYQAAABZcanVtYgAAAEdqdW1kYzJtYQARABCAAACqADibcQN1cm46YzJwYTpiNzExMzEzZS1jNWI4LTRiYmMtODgyNC04OTA0NDQ3Nzk1ZTUAAAADl2p1bWIAAAApanVtZGMyYXMAEQAQgAAAqgA4m3EDYzJwYS5hc3NlcnRpb25zAAAAALxqdW1iAAAARGp1bWRjYm9yABEAEIAAAKoAOJtxE2MycGEuaW5ncmVkaWVudC52MwAAAAAYYzJzaCBY+14sc8PD0FAsx8mTcogAAABwY2JvcqNpZGM6Zm9ybWF0bWltYWdlL3N2Zyt4bWxqaW5zdGFuY2VJRHgseG1wOmlpZDo2MTQzYWM2MC00ZjNiLTRmMzYtOGZiYy0yM2FmMDNjOTNlNTJscmVsYXRpb25zaGlwaHBhcmVudE9mAAAB4mp1bWIAAABBanVtZGNib3IAEQAQgAAAqgA4m3ETYzJwYS5hY3Rpb25zLnYyAAAAABhjMnNou7Yf5a2MurzyPb4ctEd7IgAAAZljYm9yomdhY3Rpb25zgqJmYWN0aW9ua2MycGEub3BlbmVkanBhcmFtZXRlcnOha2luZ3JlZGllbnRzgaJjdXJseC1zZWxmI2p1bWJmPWMycGEuYXNzZXJ0aW9ucy9jMnBhLmluZ3JlZGllbnQudjNkaGFzaFggaG7OX9hZWFZKGfetWOCIBon7+uYH9wMUDhu7NVshXoikZmFjdGlvbngdY29tLmFudGhyb3BpYy5jbGF1ZGUucHJvdmlkZWRqcGFyYW1ldGVyc6F4H2NvbS5hbnRocm9waWMub3JpZ2luLWNvbmZpZGVuY2VndW5rbm93bmtkZXNjcmlwdGlvbnhmQ2xhdWRlIHByb3ZpZGVkIHRoaXMgZmlsZSBhdCB0aGUgcmVxdWVzdCBvZiBhIHVzZXIgYW5kIG1heSBoYXZlIGNyZWF0ZWQgb3IgbW9kaWZpZWQgdGhlIGZpbGUgY29udGVudHMubXNvZnR3YXJlQWdlbnShZG5hbWVmQ2xhdWRlcmFsbEFjdGlvbnNJbmNsdWRlZPUAAADIanVtYgAAAEBqdW1kY2JvcgARABCAAACqADibcRNjMnBhLmhhc2guZGF0YQAAAAAYYzJzaIdLvMt20NuFvNjZS14y4GYAAACAY2JvcqVjYWxnZnNoYTI1NmNwYWRNAAAAAAAAAAAAAAAAAGRoYXNoWCDx4DifsxQG0gdsbbw2pOFZz0yf9Qn9crR0Tg7mGFjNfmRuYW1lbmp1bWJmIG1hbmlmZXN0amV4Y2x1c2lvbnOBomVzdGFydBiaZmxlbmd0aBkeBAAAAj5qdW1iAAAAJ2p1bWRjMmNsABEAEIAAAKoAOJtxA2MycGEuY2xhaW0udjIAAAACD2Nib3KlY2FsZ2ZzaGEyNTZpc2lnbmF0dXJleE1zZWxmI2p1bWJmPS9jMnBhL3VybjpjMnBhOmI3MTEzMTNlLWM1YjgtNGJiYy04ODI0LTg5MDQ0NDc3OTVlNS9jMnBhLnNpZ25hdHVyZWppbnN0YW5jZUlEeCx4bXA6aWlkOjAzYzMyMDM4LTU1Y2EtNGVlYi1iMDlkLTQ2NzUzZTJkNjgwZHJjcmVhdGVkX2Fzc2VydGlvbnODomN1cmx4LXNlbGYjanVtYmY9YzJwYS5hc3NlcnRpb25zL2MycGEuaW5ncmVkaWVudC52M2RoYXNoWCBobs5f2FlYVkoZ961Y4IgGifv65gf3AxQOG7s1WyFeiKJjdXJseCpzZWxmI2p1bWJmPWMycGEuYXNzZXJ0aW9ucy9jMnBhLmFjdGlvbnMudjJkaGFzaFgg6v1dQXKwMzStV9ovJxNOwzcYTMEs5hftjNmY9CrExtCiY3VybHgpc2VsZiNqdW1iZj1jMnBhLmFzc2VydGlvbnMvYzJwYS5oYXNoLmRhdGFkaGFzaFgg1NH1dJrK2pp6Z+dQcdqwo4Y9tYQl6B4x0GcER7aoAYN0Y2xhaW1fZ2VuZXJhdG9yX2luZm+jZG5hbWVvQW50aHJvcGljIEZpbGVzZ3ZlcnNpb25lMS4wLjBrc3BlY1ZlcnNpb25lMi40LjAAABA4anVtYgAAAChqdW1kYzJjcwARABCAAACqADibcQNjMnBhLnNpZ25hdHVyZQAAABAIY2JvctKEWQISogEmGCFZAgowggIGMIIBjaADAgECAhRA5aAK7sI50L64g/oGQgU9Z1UTADAKBggqhkjOPQQDAzBJMRcwFQYDVQQKEw5BbnRocm9waWMsIFBCQzEuMCwGA1UEAxMlQW50aHJvcGljIENvbnRlbnQgQ3JlZGVudGlhbHMgUm9vdCBDQTAeFw0yNjA4MDcxODQzNTZaFw0yODA4MDYxOTQzNTZaMEQxFzAVBgNVBAoTDkFudGhyb3BpYywgUEJDMSkwJwYDVQQDEyBBbnRocm9waWMgQ2xhdWRlIENvbnRlbnQgU2lnbmluZzBZMBMGByqGSM49AgEGCCqGSM49AwEHA0IABJh6CmvLUBgFFNU0vUKlOVtE6djd17L5SuwX0LemFisBM3dkd/3cyjxFA3Qo5S46fX0/ihY0VZ7mfb9KF703t5OjWDBWMA4GA1UdDwEB/wQEAwIHgDAVBgNVHSUEDjAMBgorBgEEAYPoXgIBMAwGA1UdEwEB/wQCMAAwHwYDVR0jBBgwFoAUzlHiBIFOZFsj+OPEz5o+nMHXXMIwCgYIKoZIzj0EAwMDZwAwZAIwMXMdFJ4BetLLVY7ORuE9noqbbAZOZn/aArXyTwFAZfKrPzxF2vPoJNf1+UCdg1XGAjBwX1zd9WGqYkqmL5SFqw1QySjr1zJfpJM9+1rdDwSPLMOPOjKuiXjoU/pUUeG9RwmhY3BhZFkNngAAAAAAAAAAAAAAAAAAAAAAAAAAAAAAAAAAAAAAAAAAAAAAAAAAAAAAAAAAAAAAAAAAAAAAAAAAAAAAAAAAAAAAAAAAAAAAAAAAAAAAAAAAAAAAAAAAAAAAAAAAAAAAAAAAAAAAAAAAAAAAAAAAAAAAAAAAAAAAAAAAAAAAAAAAAAAAAAAAAAAAAAAAAAAAAAAAAAAAAAAAAAAAAAAAAAAAAAAAAAAAAAAAAAAAAAAAAAAAAAAAAAAAAAAAAAAAAAAAAAAAAAAAAAAAAAAAAAAAAAAAAAAAAAAAAAAAAAAAAAAAAAAAAAAAAAAAAAAAAAAAAAAAAAAAAAAAAAAAAAAAAAAAAAAAAAAAAAAAAAAAAAAAAAAAAAAAAAAAAAAAAAAAAAAAAAAAAAAAAAAAAAAAAAAAAAAAAAAAAAAAAAAAAAAAAAAAAAAAAAAAAAAAAAAAAAAAAAAAAAAAAAAAAAAAAAAAAAAAAAAAAAAAAAAAAAAAAAAAAAAAAAAAAAAAAAAAAAAAAAAAAAAAAAAAAAAAAAAAAAAAAAAAAAAAAAAAAAAAAAAAAAAAAAAAAAAAAAAAAAAAAAAAAAAAAAAAAAAAAAAAAAAAAAAAAAAAAAAAAAAAAAAAAAAAAAAAAAAAAAAAAAAAAAAAAAAAAAAAAAAAAAAAAAAAAAAAAAAAAAAAAAAAAAAAAAAAAAAAAAAAAAAAAAAAAAAAAAAAAAAAAAAAAAAAAAAAAAAAAAAAAAAAAAAAAAAAAAAAAAAAAAAAAAAAAAAAAAAAAAAAAAAAAAAAAAAAAAAAAAAAAAAAAAAAAAAAAAAAAAAAAAAAAAAAAAAAAAAAAAAAAAAAAAAAAAAAAAAAAAAAAAAAAAAAAAAAAAAAAAAAAAAAAAAAAAAAAAAAAAAAAAAAAAAAAAAAAAAAAAAAAAAAAAAAAAAAAAAAAAAAAAAAAAAAAAAAAAAAAAAAAAAAAAAAAAAAAAAAAAAAAAAAAAAAAAAAAAAAAAAAAAAAAAAAAAAAAAAAAAAAAAAAAAAAAAAAAAAAAAAAAAAAAAAAAAAAAAAAAAAAAAAAAAAAAAAAAAAAAAAAAAAAAAAAAAAAAAAAAAAAAAAAAAAAAAAAAAAAAAAAAAAAAAAAAAAAAAAAAAAAAAAAAAAAAAAAAAAAAAAAAAAAAAAAAAAAAAAAAAAAAAAAAAAAAAAAAAAAAAAAAAAAAAAAAAAAAAAAAAAAAAAAAAAAAAAAAAAAAAAAAAAAAAAAAAAAAAAAAAAAAAAAAAAAAAAAAAAAAAAAAAAAAAAAAAAAAAAAAAAAAAAAAAAAAAAAAAAAAAAAAAAAAAAAAAAAAAAAAAAAAAAAAAAAAAAAAAAAAAAAAAAAAAAAAAAAAAAAAAAAAAAAAAAAAAAAAAAAAAAAAAAAAAAAAAAAAAAAAAAAAAAAAAAAAAAAAAAAAAAAAAAAAAAAAAAAAAAAAAAAAAAAAAAAAAAAAAAAAAAAAAAAAAAAAAAAAAAAAAAAAAAAAAAAAAAAAAAAAAAAAAAAAAAAAAAAAAAAAAAAAAAAAAAAAAAAAAAAAAAAAAAAAAAAAAAAAAAAAAAAAAAAAAAAAAAAAAAAAAAAAAAAAAAAAAAAAAAAAAAAAAAAAAAAAAAAAAAAAAAAAAAAAAAAAAAAAAAAAAAAAAAAAAAAAAAAAAAAAAAAAAAAAAAAAAAAAAAAAAAAAAAAAAAAAAAAAAAAAAAAAAAAAAAAAAAAAAAAAAAAAAAAAAAAAAAAAAAAAAAAAAAAAAAAAAAAAAAAAAAAAAAAAAAAAAAAAAAAAAAAAAAAAAAAAAAAAAAAAAAAAAAAAAAAAAAAAAAAAAAAAAAAAAAAAAAAAAAAAAAAAAAAAAAAAAAAAAAAAAAAAAAAAAAAAAAAAAAAAAAAAAAAAAAAAAAAAAAAAAAAAAAAAAAAAAAAAAAAAAAAAAAAAAAAAAAAAAAAAAAAAAAAAAAAAAAAAAAAAAAAAAAAAAAAAAAAAAAAAAAAAAAAAAAAAAAAAAAAAAAAAAAAAAAAAAAAAAAAAAAAAAAAAAAAAAAAAAAAAAAAAAAAAAAAAAAAAAAAAAAAAAAAAAAAAAAAAAAAAAAAAAAAAAAAAAAAAAAAAAAAAAAAAAAAAAAAAAAAAAAAAAAAAAAAAAAAAAAAAAAAAAAAAAAAAAAAAAAAAAAAAAAAAAAAAAAAAAAAAAAAAAAAAAAAAAAAAAAAAAAAAAAAAAAAAAAAAAAAAAAAAAAAAAAAAAAAAAAAAAAAAAAAAAAAAAAAAAAAAAAAAAAAAAAAAAAAAAAAAAAAAAAAAAAAAAAAAAAAAAAAAAAAAAAAAAAAAAAAAAAAAAAAAAAAAAAAAAAAAAAAAAAAAAAAAAAAAAAAAAAAAAAAAAAAAAAAAAAAAAAAAAAAAAAAAAAAAAAAAAAAAAAAAAAAAAAAAAAAAAAAAAAAAAAAAAAAAAAAAAAAAAAAAAAAAAAAAAAAAAAAAAAAAAAAAAAAAAAAAAAAAAAAAAAAAAAAAAAAAAAAAAAAAAAAAAAAAAAAAAAAAAAAAAAAAAAAAAAAAAAAAAAAAAAAAAAAAAAAAAAAAAAAAAAAAAAAAAAAAAAAAAAAAAAAAAAAAAAAAAAAAAAAAAAAAAAAAAAAAAAAAAAAAAAAAAAAAAAAAAAAAAAAAAAAAAAAAAAAAAAAAAAAAAAAAAAAAAAAAAAAAAAAAAAAAAAAAAAAAAAAAAAAAAAAAAAAAAAAAAAAAAAAAAAAAAAAAAAAAAAAAAAAAAAAAAAAAAAAAAAAAAAAAAAAAAAAAAAAAAAAAAAAAAAAAAAAAAAAAAAAAAAAAAAAAAAAAAAAAAAAAAAAAAAAAAAAAAAAAAAAAAAAAAAAAAAAAAAAAAAAAAAAAAAAAAAAAAAAAAAAAAAAAAAAAAAAAAAAAAAAAAAAAAAAAAAAAAAAAAAAAAAAAAAAAAAAAAAAAAAAAAAAAAAAAAAAAAAAAAAAAAAAAAAAAAAAAAAAAAAAAAAAAAAAAAAAAAAAAAAAAAAAAAAAAAAAAAAAAAAAAAAAAAAAAAAAAAAAAAAAAAAAAAAAAAAAAAAAAAAAAAAAAAAAAAAAAAAAAAAAAAAAAAAAAAAAAAAAAAAAAAAAAAAAAAAAAAAAAAAAAAAAAAAAAAAAAAAAAAAAAAAAAAAAAAAAAAAAAAAAAAAAAAAAAAAAAAAAAAAAAAAAAAAAAAAAAAAAAAAAAAAAAAAAAAAAAAAAAAAAAAAAAAAAAAAAAAAAAAAAAAAAAAAAAAAAAAAAAAAAAAAAAAAAAAAAAAAAAAAAAAAAAAAAAAAAAAAAAAAAAAAAAAAAAAAAAAAAAAAAAAAAAAAAAAAAAAAAAAAAAAAAAAAAAAAAAAAAAAAAAAAAAAAAAAAAAAAAAAAAAAAAAAAAAAAAAAAAAAAAAAAAAAAAAAAAAAAAAAAAAAAAAAAAAAAAAAAAAAAAAAAAAAAAAAAAAAAAAAAAAAAAAAAAAAAAAAAAAAAAAAAAAAAAAAAAAAAAAAAAAAAAAAAAAAAAAAAAAAAAAAAAAAAAAAAAAAAAAAAAAAAAAAAAAAAAAAAAAAAAAAAAAAAAAAAAAAAAAAAAAAAAAAAAAAAAAAAAAAAAAAAAAAAAAAAAAAAAAAAAAAAAAAAAAAAAAAAAAAAAAAAAAAAAAAAAAAAAAAAAAAAAAAAAAAAAAAAAAAAAAAAAAAAAAAAAAAAAAAAAAAAAAAAAAAAAAAAAAAAAAAAAAAAAAAAAAAAAAAAAAAAAAAAAAAAAAAAAAAAAAAAAAAAAAAAAAAAAAAAAAAAAAAAAAAAAAAAAAAAAAAAAAAAAAAAAAAAAAAAAAAAAAAAAAAAAAAAAAAAAAAAAAAAAAAAAAAAAAAAAAAAAAAAAAAAAAAAAAAAAAAAAAAAAAAAAAAAAAAAAAAAAAAAAAAAAAAAAAAAAAAAAAAAAAAAAAAAAAAAAAAAAAAAAAAAAAAAAAAAAAAAAAAAAAAAAAAAAAAAAAAAAAAAAAAAAAAAAAAAAAAAAAAAAAAAAAAAAAAAAAAAAAAAAAAAAAAAAAAAAAAAAAAAAAAAAAAAAAAAAAAAAAAAAAAAAAAAAAAAAAAAAAAAAAAAAAAAAAAAAAAAAAAAAAAAAAAAAAAAAAAAAAAAAAAAAAAAAAAAAAAAAAAAAAAAAAAAAAAAAAAAAAAAAAAAAAAAAAAAAAAAAAAAAAAAAAAAAAAAAAAAAAAAAAAAAAAAAAAAAAAAAAAAAAAAAAAAAAAAAAAAAAAAAAAAAAAAAAAAAAAAAAAAAAAAAAAAAAAAAAAAAAAAAAAAAAAAAAAAAAAAAAAAAAAAAAAAAAAAAAAAAAAAAAAAAAAAAAAAAAAAAAAAAAAAAAAAAAAAAAAAAAAAAAAAAAAAAAAAAAAAAAAAAAAAAAAAAAAAAAAAAAAAAAAAAAAAAAAAAAAAAAAAAAAAAAAAAAAAAAAAAAAAAAAAAAAAAAAAAAAAAAAAAAAAAAAAAAAAAAAAAAAAAAAAAAAAAAAAAAAAAAAAAAAAAAAAAAAAAAAAAAAAAAAAAAAAAAAAAAAAAAAAAAAAAAAAAAAAAAAAAAAAAAAAAAAAAAAAAAAAAAAAAAAAAAAAAAAAAAAAAAAAAAAAAAAAAAAAAAAAAAPZYQGvf60B9vaPynR4YFW6nW4eSsGKYAUrgXC/iCuUm9yHXO9gogkKNS3XfoYCTEU4Vy8ss0M/zerjk8768ufv/L2g=</c2pa:manifest></metadata><rect width="1080" height="1080" fill="#083D6B"/><circle cx="540.0" cy="540.0" r="464.40" fill="#083D6B"/><g fill="#D51E23"><circle cx="391.99" cy="142.97" r="18.50"/><circle cx="344.40" cy="142.97" r="11.66"/><circle cx="344.40" cy="188.15" r="18.50"/><circle cx="391.99" cy="188.15" r="18.50"/><circle cx="534.75" cy="188.15" r="18.50"/><circle cx="582.34" cy="188.15" r="18.50"/><circle cx="629.93" cy="188.15" r="18.50"/><circle cx="582.34" cy="233.32" r="18.50"/><circle cx="201.63" cy="233.32" r="18.50"/><circle cx="249.22" cy="233.32" r="18.50"/><circle cx="296.81" cy="233.32" r="18.50"/><circle cx="344.40" cy="233.32" r="18.50"/><circle cx="391.99" cy="233.32" r="18.50"/><circle cx="439.57" cy="233.32" r="18.50"/><circle cx="487.16" cy="233.32" r="18.50"/><circle cx="534.75" cy="233.32" r="18.50"/><circle cx="629.93" cy="233.32" r="11.66"/><circle cx="249.22" cy="278.49" r="18.50"/><circle cx="296.81" cy="278.49" r="18.50"/><circle cx="344.40" cy="278.49" r="18.50"/><circle cx="391.99" cy="278.49" r="18.50"/><circle cx="439.57" cy="278.49" r="18.50"/><circle cx="487.16" cy="278.49" r="18.50"/><circle cx="534.75" cy="278.49" r="18.50"/><circle cx="582.34" cy="278.49" r="18.50"/><circle cx="629.93" cy="278.49" r="18.50"/><circle cx="677.52" cy="278.49" r="18.50"/><circle cx="725.11" cy="278.49" r="18.50"/><circle cx="201.63" cy="278.49" r="18.50"/><circle cx="249.22" cy="323.66" r="18.50"/><circle cx="296.81" cy="323.66" r="18.50"/><circle cx="344.40" cy="323.66" r="18.50"/><circle cx="391.99" cy="323.66" r="18.50"/><circle cx="439.57" cy="323.66" r="18.50"/><circle cx="487.16" cy="323.66" r="18.50"/><circle cx="534.75" cy="323.66" r="18.50"/><circle cx="582.34" cy="323.66" r="18.50"/><circle cx="629.93" cy="323.66" r="18.50"/><circle cx="677.52" cy="323.66" r="18.50"/><circle cx="725.11" cy="323.66" r="18.50"/><circle cx="772.70" cy="323.66" r="18.50"/><circle cx="820.29" cy="323.66" r="18.50"/><circle cx="867.88" cy="323.66" r="18.50"/><circle cx="201.63" cy="323.66" r="18.50"/><circle cx="296.81" cy="368.83" r="18.50"/><circle cx="439.57" cy="368.83" r="18.50"/><circle cx="582.34" cy="368.83" r="18.50"/><circle cx="154.04" cy="368.83" r="18.50"/><circle cx="201.63" cy="368.83" r="18.50"/><circle cx="249.22" cy="368.83" r="18.50"/><circle cx="344.40" cy="368.83" r="18.50"/><circle cx="391.99" cy="368.83" r="18.50"/><circle cx="487.16" cy="368.83" r="18.50"/><circle cx="534.75" cy="368.83" r="18.50"/><circle cx="629.93" cy="368.83" r="18.50"/><circle cx="677.52" cy="368.83" r="18.50"/><circle cx="725.11" cy="368.83" r="18.50"/><circle cx="772.70" cy="368.83" r="18.50"/><circle cx="820.29" cy="368.83" r="18.50"/><circle cx="867.88" cy="368.83" r="18.50"/><circle cx="915.47" cy="368.83" r="18.50"/><circle cx="963.05" cy="368.83" r="18.50"/><circle cx="201.63" cy="414.00" r="18.50"/><circle cx="296.81" cy="414.00" r="18.50"/><circle cx="344.40" cy="414.00" r="18.50"/><circle cx="439.57" cy="414.00" r="18.50"/><circle cx="487.16" cy="414.00" r="18.50"/><circle cx="582.34" cy="414.00" r="18.50"/><circle cx="677.52" cy="414.00" r="18.50"/><circle cx="725.11" cy="414.00" r="18.50"/><circle cx="772.70" cy="414.00" r="18.50"/><circle cx="915.47" cy="414.00" r="18.50"/><circle cx="963.05" cy="414.00" r="18.50"/><circle cx="154.04" cy="414.00" r="18.50"/><circle cx="249.22" cy="414.00" r="18.50"/><circle cx="391.99" cy="414.00" r="18.50"/><circle cx="534.75" cy="414.00" r="18.50"/><circle cx="629.93" cy="414.00" r="18.50"/><circle cx="820.29" cy="414.00" r="18.50"/><circle cx="867.88" cy="414.00" r="18.50"/><circle cx="106.45" cy="414.00" r="11.66"/><circle cx="154.04" cy="459.17" r="18.50"/><circle cx="201.63" cy="459.17" r="18.50"/><circle cx="249.22" cy="459.17" r="18.50"/><circle cx="296.81" cy="459.17" r="18.50"/><circle cx="344.40" cy="459.17" r="18.50"/><circle cx="391.99" cy="459.17" r="18.50"/><circle cx="439.57" cy="459.17" r="18.50"/><circle cx="487.16" cy="459.17" r="18.50"/><circle cx="534.75" cy="459.17" r="18.50"/><circle cx="582.34" cy="459.17" r="18.50"/><circle cx="629.93" cy="459.17" r="18.50"/><circle cx="677.52" cy="459.17" r="18.50"/><circle cx="725.11" cy="459.17" r="18.50"/><circle cx="772.70" cy="459.17" r="18.50"/><circle cx="820.29" cy="459.17" r="18.50"/><circle cx="867.88" cy="459.17" r="18.50"/><circle cx="915.47" cy="459.17" r="18.50"/><circle cx="963.05" cy="459.17" r="11.66"/><circle cx="867.88" cy="504.34" r="18.50"/><circle cx="344.40" cy="504.34" r="18.50"/><circle cx="391.99" cy="504.34" r="18.50"/><circle cx="439.57" cy="504.34" r="18.50"/><circle cx="487.16" cy="504.34" r="18.50"/><circle cx="534.75" cy="504.34" r="18.50"/><circle cx="582.34" cy="504.34" r="18.50"/><circle cx="629.93" cy="504.34" r="18.50"/><circle cx="677.52" cy="504.34" r="18.50"/><circle cx="725.11" cy="504.34" r="18.50"/><circle cx="772.70" cy="504.34" r="18.50"/><circle cx="820.29" cy="504.34" r="18.50"/><circle cx="915.47" cy="504.34" r="18.50"/><circle cx="201.63" cy="504.34" r="11.66"/><circle cx="534.75" cy="549.51" r="18.50"/><circle cx="582.34" cy="549.51" r="18.50"/><circle cx="725.11" cy="549.51" r="18.50"/><circle cx="867.88" cy="549.51" r="18.50"/><circle cx="439.57" cy="549.51" r="18.50"/><circle cx="487.16" cy="549.51" r="18.50"/><circle cx="629.93" cy="549.51" r="18.50"/><circle cx="677.52" cy="549.51" r="18.50"/><circle cx="772.70" cy="549.51" r="18.50"/><circle cx="820.29" cy="549.51" r="18.50"/><circle cx="391.99" cy="549.51" r="11.66"/><circle cx="439.57" cy="594.68" r="18.50"/><circle cx="487.16" cy="594.68" r="18.50"/><circle cx="534.75" cy="594.68" r="18.50"/><circle cx="582.34" cy="594.68" r="18.50"/><circle cx="629.93" cy="594.68" r="18.50"/><circle cx="677.52" cy="594.68" r="18.50"/><circle cx="725.11" cy="594.68" r="18.50"/><circle cx="772.70" cy="594.68" r="18.50"/><circle cx="820.29" cy="594.68" r="18.50"/><circle cx="867.88" cy="594.68" r="18.50"/><circle cx="487.16" cy="639.85" r="18.50"/><circle cx="534.75" cy="639.85" r="18.50"/><circle cx="582.34" cy="639.85" r="18.50"/><circle cx="629.93" cy="639.85" r="18.50"/><circle cx="677.52" cy="639.85" r="18.50"/><circle cx="725.11" cy="639.85" r="18.50"/><circle cx="772.70" cy="639.85" r="18.50"/><circle cx="820.29" cy="639.85" r="18.50"/><circle cx="867.88" cy="639.85" r="11.66"/><circle cx="487.16" cy="685.02" r="18.50"/><circle cx="534.75" cy="685.02" r="18.50"/><circle cx="582.34" cy="685.02" r="18.50"/><circle cx="629.93" cy="685.02" r="18.50"/><circle cx="677.52" cy="685.02" r="18.50"/><circle cx="725.11" cy="685.02" r="18.50"/><circle cx="772.70" cy="685.02" r="18.50"/><circle cx="820.29" cy="685.02" r="18.50"/><circle cx="534.75" cy="730.19" r="18.50"/><circle cx="677.52" cy="730.19" r="18.50"/><circle cx="772.70" cy="730.19" r="18.50"/><circle cx="487.16" cy="730.19" r="18.50"/><circle cx="582.34" cy="730.19" r="18.50"/><circle cx="629.93" cy="730.19" r="18.50"/><circle cx="725.11" cy="730.19" r="18.50"/><circle cx="820.29" cy="730.19" r="18.50"/><circle cx="582.34" cy="775.36" r="18.50"/><circle cx="629.93" cy="775.36" r="18.50"/><circle cx="677.52" cy="775.36" r="18.50"/><circle cx="725.11" cy="775.36" r="18.50"/><circle cx="534.75" cy="775.36" r="11.66"/><circle cx="582.34" cy="820.53" r="18.50"/><circle cx="629.93" cy="820.53" r="18.50"/><circle cx="677.52" cy="820.53" r="11.66"/><circle cx="582.34" cy="865.71" r="18.50"/><circle cx="629.93" cy="865.71" r="18.50"/><circle cx="534.75" cy="910.88" r="18.50"/><circle cx="582.34" cy="910.88" r="18.50"/><circle cx="629.93" cy="910.88" r="18.50"/><circle cx="582.34" cy="956.05" r="18.50"/><circle cx="534.75" cy="956.05" r="11.66"/><circle cx="582.34" cy="1001.22" r="11.66"/></g></svg>